<?xml version="1.0" encoding="UTF-8"?>
<!DOCTYPE svg PUBLIC "-//W3C//DTD SVG 1.1//EN" "http://www.w3.org/Graphics/SVG/1.1/DTD/svg11.dtd">
<!-- Creator: CorelDRAW 2017 -->
<svg xmlns="http://www.w3.org/2000/svg" xml:space="preserve" width="67.7332mm" height="67.7332mm" version="1.1" style="shape-rendering:geometricPrecision; text-rendering:geometricPrecision; image-rendering:optimizeQuality; fill-rule:evenodd; clip-rule:evenodd"
viewBox="0 0 6773.32 6773.32"
 xmlns:xlink="http://www.w3.org/1999/xlink">
 <defs>
  <style type="text/css">
   <![CDATA[
    .fil0 {fill:#2B2A29;fill-rule:nonzero}
   ]]>
  </style>
 </defs>
 <g id="Слой_x0020_1">
  <metadata id="CorelCorpID_0Corel-Layer"/>
  <path class="fil0" d="M3879.18 5850.61c-498.69,0 -868.68,-190.03 -1111.99,-569.07 -242.31,-379.04 -362.96,-969.22 -362.96,-1770.54 0,-790.25 125.68,-1386.47 377.03,-1790.64 251.36,-403.18 629.39,-605.26 1136.12,-605.26 156.85,0 312.69,16.08 466.52,48.26 153.83,33.17 281.51,74.4 381.05,125.67l-161.87 441.38c-272.47,-101.55 -504.72,-152.82 -697.76,-152.82 -325.76,0 -566.05,158.85 -720.88,475.56 -154.84,317.71 -232.26,799.31 -232.26,1445.79 0,650.5 72.39,1129.08 216.17,1435.73 143.77,305.65 379.04,459.48 704.8,459.48 284.53,0 564.04,-63.34 839.52,-189.02l0 471.54c-224.21,115.62 -501.7,173.94 -833.49,173.94z"/>
 </g>
</svg>
